#!OML:ASF X:\für Bonn\!DataBase\2005_08_11_Bastian_Final\c3d\Bastian.ASF
:FULLY-SPECIFIED
:DEGREES
172
root -5.73233 14.8753 -3.64341 145.788 -39.2665 -169.738
lowerback 22.926 -2.27334 0.0213203
upperback 6.43913 -3.77999 0.862302
thorax -5.63862 -2.22679 1.97966
lowerneck 7.79804 -15.2672 -7.82762
upperneck -9.95445 -20.5865 15.2644
head -1.76105 -10.8667 6.16555
rclavicle 2.14687e-014 -1.27222e-014
rhumerus -304.807 8.0079 -368.66
rradius 44.2744
rwrist -41.9605
rhand -40.8614 1067.72
rfingers 7.12502
rthumb -13.7981 -41.8014
lclavicle 2.14687e-014 -1.27222e-014
lhumerus 81.8638 -11.852 46.7675
lradius 45.6808
lwrist -141.048
lhand -20.421 10.9223
lfingers 7.12502
lthumb 5.93341 40.8193
rfemur -6.97878 -11.5632 22.6961
rtibia 71.0777
rfoot -29.2283 5.2787
rtoes 3.68648
lfemur -1.3013 7.75049 -6.35536
ltibia 72.6619
lfoot -33.0115 -14.5747
ltoes 11.13
173
root -5.70366 14.864 -3.63025 145.859 -39.2049 -169.88
lowerback 23.0651 -2.22937 0.0422537
upperback 6.53587 -3.73806 0.849375
thorax -5.60703 -2.21566 1.94727
lowerneck 7.62114 -15.2916 -7.60022
upperneck -10.218 -20.5803 15.4467
head -1.81432 -10.887 6.18868
rclavicle 3.85145e-014 -4.77083e-015
rhumerus -306.27 8.80312 -370.796
rradius 46.4776
rwrist -39.6945
rhand -40.8831 1068.94
rfingers 7.12502
rthumb -13.819 -40.5832
lclavicle 3.85145e-014 -4.77083e-015
lhumerus 79.6097 -12.6406 46.7511
lradius 48.6297
lwrist -141.167
lhand -20.8414 10.8962
lfingers 7.12502
lthumb 5.52743 40.8041
rfemur -7.20418 -10.7257 23.1554
rtibia 71.1069
rfoot -29.2827 4.37927
rtoes 3.36135
lfemur -1.49898 7.68083 -6.47388
ltibia 72.7748
lfoot -32.9339 -14.4943
ltoes 11.222
174
root -5.67901 14.8703 -3.61584 146.048 -39.1904 -170.054
lowerback 23.0754 -2.20879 0.0859626
upperback 6.60679 -3.71587 0.793644
thorax -5.54197 -2.21032 1.85418
lowerneck 7.45089 -15.2981 -7.3949
upperneck -10.4655 -20.5553 15.6925
head -1.85646 -10.9025 6.23217
rclavicle 3.46382e-014 8.74653e-015
rhumerus -307.978 9.80218 -372.585
rradius 48.9384
rwrist -37.6362
rhand -40.9088 1070.12
rfingers 7.12502
rthumb -13.8437 -39.3979
lclavicle 3.46382e-014 8.74653e-015
lhumerus 77.2958 -13.5462 46.5684
lradius 51.6586
lwrist -141.312
lhand -21.1582 10.9416
lfingers 7.12502
lthumb 5.22164 40.8573
rfemur -7.41585 -9.9158 23.5401
rtibia 70.9812
rfoot -29.1988 3.53598
rtoes 3.12472
lfemur -1.67125 7.76186 -6.61883
ltibia 72.6636
lfoot -32.8249 -14.2852
ltoes 10.629
175
root -5.65748 14.8934 -3.59724 146.255 -39.2202 -170.185
lowerback 23.0336 -2.23088 0.199311
upperback 6.66232 -3.72932 0.748814
thorax -5.46955 -2.22089 1.74047
lowerneck 7.18426 -15.3234 -7.26764
upperneck -10.6033 -20.5662 15.8826
head -1.84475 -10.9242 6.25161
rclavicle 8.71671e-014 -4.45278e-014
rhumerus -310.059 11.0761 -374.594
rradius 51.6117
rwrist -35.1125
rhand -40.9548 1071.38
rfingers 7.12502
rthumb -13.8881 -38.1322
lclavicle 8.71671e-014 -4.45278e-014
lhumerus 74.8949 -14.5665 46.5443
lradius 54.5842
lwrist -141.632
lhand -21.6012 11.1537
lfingers 7.12502
lthumb 4.79388 41.0795
rfemur -7.5787 -9.21974 23.8689
rtibia 70.7049
rfoot -28.9933 2.71178
rtoes 2.81475
lfemur -1.79963 7.98585 -6.70271
ltibia 72.3604
lfoot -32.6457 -14.0776
ltoes 9.42313
176
root -5.63677 14.9327 -3.57678 146.541 -39.313 -170.327
lowerback 22.8961 -2.26331 0.30029
upperback 6.69632 -3.75366 0.685157
thorax -5.37263 -2.23348 1.6115
lowerneck 6.86955 -15.3623 -7.1459
upperneck -10.662 -20.6013 16.0411
head -1.80218 -10.9526 6.25217
rclavicle -2.43511e-015 4.77083e-015
rhumerus -312.46 12.5996 -376.669
rradius 54.5178
rwrist -32.4758
rhand -41.0902 1072.62
rfingers 7.12502
rthumb -14.0186 -36.8855
lclavicle -2.43511e-015 4.77083e-015
lhumerus 72.4748 -15.732 46.4613
lradius 57.4404
lwrist -141.963
lhand -21.9831 11.6042
lfingers 7.12502
lthumb 4.42506 41.5379
rfemur -7.70652 -8.64021 24.1077
rtibia 70.281
rfoot -28.6894 1.93144
rtoes 2.116
lfemur -1.90876 8.27663 -6.82169
ltibia 71.8593
lfoot -32.3603 -13.7807
ltoes 7.68137
177
root -5.61657 14.9875 -3.55669 146.861 -39.4603 -170.457
lowerback 22.6805 -2.31844 0.361297
upperback 6.71902 -3.81234 0.633502
thorax -5.24474 -2.26119 1.52293
lowerneck 6.5339 -15.3946 -7.10119
upperneck -10.6629 -20.637 16.2037
head -1.73039 -10.9761 6.25681
rclavicle -4.14963e-014 -1.31198e-014
rhumerus -314.969 14.3224 -378.586
rradius 57.5156
rwrist -29.8912
rhand -41.3334 1073.88
rfingers 7.12502
rthumb -14.2529 -35.6067
lclavicle -4.14963e-014 -1.31198e-014
lhumerus 69.9014 -16.9713 46.3472
lradius 60.3423
lwrist -142.244
lhand -22.359 12.0941
lfingers 7.12502
lthumb 4.0621 42.0351
rfemur -7.78667 -8.13802 24.2905
rtibia 69.7058
rfoot -28.3196 1.21055
rtoes 1.40297
lfemur -2.00143 8.55428 -6.96792
ltibia 71.1881
lfoot -32 -13.4478
ltoes 5.81129
